<?xml version="1.0" encoding="utf-8"?>
<!-- Generator: Adobe Illustrator 16.0.0, SVG Export Plug-In . SVG Version: 6.00 Build 0)  -->
<!DOCTYPE svg PUBLIC "-//W3C//DTD SVG 1.1//EN" "http://www.w3.org/Graphics/SVG/1.1/DTD/svg11.dtd">
<svg version="1.1" id="Layer_1" xmlns="http://www.w3.org/2000/svg" xmlns:xlink="http://www.w3.org/1999/xlink" x="0px" y="0px"
	 width="605px" height="607px" viewBox="0 0 605 607" enable-background="new 0 0 605 607" xml:space="preserve">
<title>Pattern</title>
<desc>Created with Sketch.</desc>
<g id="Angular-House" opacity="0.1">
	<g id="Strona-główna---Desktop-1200px" transform="translate(-1164.000000, -126.000000)">
		<g id="Top">
			<g id="Content" transform="translate(360.000000, 93.000000)">
				
					<g id="Pattern" transform="translate(1097.693424, 329.500000) rotate(45.000000) translate(-1097.693424, -329.500000) translate(866.000000, 96.000000)">
					<path id="Fill-5" d="M186.79,258.189l-12.245-11.379c-0.809-0.752-2.078-0.711-2.838,0.091
						c-0.757,0.801-0.718,2.06,0.092,2.812l12.244,11.377c0.809,0.752,2.079,0.711,2.837-0.09
						C187.639,260.199,187.599,258.941,186.79,258.189"/>
					<path id="Fill-6" d="M175.507,260.995l11.378-12.245c0.752-0.809,0.713-2.078-0.089-2.838c-0.801-0.758-2.06-0.717-2.81,0.092
						l-11.38,12.245c-0.751,0.808-0.711,2.078,0.09,2.837C173.498,261.844,174.755,261.804,175.507,260.995"/>
					<path id="Fill-13" d="M325.897,141.665l-12.245-11.378c-0.809-0.751-2.08-0.711-2.837,0.089
						c-0.758,0.801-0.718,2.061,0.091,2.812l12.245,11.379c0.809,0.752,2.079,0.711,2.838-0.09
						C326.746,143.675,326.705,142.416,325.897,141.665"/>
					<path id="Fill-14" d="M314.614,145.373l11.379-12.245c0.752-0.809,0.711-2.079-0.09-2.837c-0.8-0.757-2.059-0.718-2.81,0.091
						l-11.379,12.246c-0.752,0.809-0.711,2.078,0.09,2.837C312.604,146.222,313.862,146.182,314.614,145.373"/>
					<path id="Fill-15" d="M386.417,280.772l-12.245-11.379c-0.809-0.751-2.079-0.711-2.837,0.09
						c-0.758,0.802-0.717,2.061,0.091,2.81l12.245,11.379c0.809,0.751,2.078,0.711,2.836-0.09
						C387.267,282.781,387.226,281.523,386.417,280.772"/>
					<path id="Fill-16" d="M375.134,283.577l11.379-12.245c0.751-0.809,0.711-2.079-0.09-2.837c-0.802-0.758-2.059-0.718-2.811,0.09
						l-11.379,12.246c-0.752,0.809-0.711,2.079,0.088,2.835C373.124,284.427,374.382,284.384,375.134,283.577"/>
					<path id="Fill-17" d="M377.383,393.682l-12.244-11.379c-0.808-0.75-2.078-0.711-2.836,0.092
						c-0.759,0.799-0.717,2.058,0.091,2.809l12.245,11.379c0.808,0.751,2.079,0.711,2.837-0.09
						C378.233,395.692,378.192,394.433,377.383,393.682"/>
					<path id="Fill-18" d="M365.196,397.39l11.381-12.244c0.751-0.809,0.71-2.079-0.09-2.837c-0.802-0.759-2.061-0.718-2.811,0.091
						l-11.379,12.245c-0.751,0.809-0.711,2.08,0.09,2.836C363.188,398.241,364.447,398.199,365.196,397.39"/>
					<path id="Fill-19" d="M263.635,99.479l1.749-1.012l-8.486-14.682c-0.361-0.624-1.03-1.009-1.75-1.008
						c-0.722,0-1.389,0.387-1.749,1.012l-16.927,29.38c-0.361,0.625-0.36,1.396,0.001,2.02c0.362,0.625,1.029,1.01,1.751,1.009
						l16.947-0.014l16.949-0.009c0.722,0.001,1.389-0.386,1.749-1.011c0.361-0.626,0.361-1.396,0-2.021l-8.485-14.678
						L263.635,99.479l-1.749,1.011l6.732,11.648l-13.45,0.007l-13.448,0.011l13.431-23.314l6.735,11.649L263.635,99.479"/>
					<path id="Fill-20" d="M235.633,280.138l1.75-1.013l-8.487-14.68c-0.362-0.625-1.029-1.011-1.751-1.01
						c-0.722,0.001-1.389,0.386-1.749,1.013l-16.926,29.381c-0.36,0.624-0.36,1.396,0.002,2.02c0.361,0.625,1.029,1.01,1.751,1.009
						l16.947-0.013l16.95-0.009c0.721,0,1.389-0.387,1.75-1.011c0.36-0.626,0.359-1.396-0.002-2.022l-8.484-14.678L235.633,280.138
						l-1.748,1.011l6.733,11.647l-13.45,0.007l-13.449,0.011l13.432-23.314l6.735,11.65L235.633,280.138"/>
					<path id="Fill-21" d="M334.092,336.141l1.749-1.012l-8.486-14.681c-0.361-0.625-1.029-1.009-1.75-1.01
						c-0.722,0.001-1.39,0.387-1.75,1.012l-8.458,14.688l-8.468,14.691c-0.36,0.626-0.359,1.395,0.002,2.022
						c0.361,0.625,1.029,1.009,1.75,1.008l16.948-0.013l16.949-0.009c0.722-0.001,1.389-0.386,1.749-1.013
						c0.361-0.624,0.361-1.394,0-2.019l-8.485-14.677L334.092,336.141l-1.748,1.011l6.732,11.646l-13.45,0.008l-13.449,0.011
						l13.433-23.315l6.734,11.65L334.092,336.141"/>
					<path id="Fill-22" d="M390.544,222.336l1.966,0.526l4.409-16.485c0.186-0.701-0.014-1.451-0.529-1.964
						c-0.514-0.514-1.264-0.713-1.966-0.524l-16.478,4.43l-16.486,4.426c-0.702,0.189-1.25,0.738-1.438,1.439
						c-0.187,0.702,0.014,1.45,0.528,1.965l12.076,12.051l12.075,12.059c0.514,0.514,1.263,0.715,1.966,0.526
						c0.701-0.189,1.249-0.737,1.436-1.439l4.406-16.482L390.544,222.336l-1.965-0.525l-3.496,13.079l-19.165-19.132l13.084-3.513
						l13.076-3.515l-3.499,13.081L390.544,222.336"/>
					<path id="Fill-27" d="M292.892,191.625h-2.023c-0.002,3.005-1.214,5.705-3.181,7.676c-1.971,1.968-4.671,3.178-7.676,3.181
						c-3.005-0.001-5.707-1.213-7.678-3.18c-1.968-1.972-3.179-4.673-3.18-7.678c0-3.004,1.211-5.707,3.18-7.677
						c1.971-1.967,4.673-3.179,7.678-3.18c3.003,0.001,5.705,1.212,7.676,3.18c1.967,1.971,3.18,4.672,3.181,7.678l4.046-0.001
						c0-8.233-6.672-14.903-14.903-14.906c-8.233,0.002-14.903,6.673-14.905,14.905c0.001,8.232,6.673,14.903,14.906,14.904
						c8.231-0.001,14.901-6.673,14.902-14.904L292.892,191.625"/>
					<path id="Fill-29" d="M235.082,430.091h-2.023c-0.002,3.006-1.213,5.707-3.181,7.678c-1.97,1.968-4.671,3.18-7.676,3.181
						c-3.004-0.001-5.706-1.213-7.678-3.18c-1.968-1.973-3.179-4.673-3.18-7.678c0.002-3.004,1.213-5.705,3.179-7.677
						c1.973-1.967,4.675-3.177,7.678-3.178c3.004,0.001,5.707,1.211,7.677,3.179c1.967,1.97,3.179,4.673,3.18,7.677l4.046-0.001
						c0-8.232-6.671-14.902-14.903-14.903c-4.109-0.002-7.848,1.671-10.539,4.364c-2.694,2.692-4.368,6.43-4.366,10.541
						c0.002,8.232,6.673,14.903,14.905,14.904c8.231-0.002,14.903-6.672,14.903-14.906L235.082,430.091"/>
					<path id="Fill-30" d="M272.767,410.425c0.002-3.046,1.213-5.785,3.182-7.783c1.97-1.995,4.671-3.223,7.676-3.224
						c3.004,0.001,5.706,1.229,7.677,3.224c1.967,1.998,3.179,4.737,3.18,7.783c0,1.132,0.906,2.052,2.023,2.051
						c1.119,0.001,2.024-0.918,2.024-2.05c-0.001-8.348-6.672-15.111-14.903-15.112c-4.109-0.001-7.848,1.694-10.539,4.425
						c-2.695,2.728-4.367,6.519-4.367,10.686c0,1.132,0.908,2.052,2.024,2.053C271.862,412.477,272.767,411.559,272.767,410.425"/>
					<path id="Fill-31" d="M168.889,210.8c0.002-3.047,1.212-5.786,3.181-7.784c1.972-1.995,4.674-3.223,7.677-3.223
						c3.005,0.001,5.707,1.228,7.678,3.224c1.968,1.998,3.179,4.736,3.179,7.784c0,1.132,0.906,2.051,2.024,2.051
						c1.117,0,2.024-0.919,2.024-2.051c-0.001-8.347-6.673-15.11-14.903-15.111c-8.232,0.001-14.903,6.765-14.905,15.111
						c0,1.132,0.907,2.051,2.024,2.051C167.983,212.851,168.889,211.932,168.889,210.8"/>
					<path id="Fill-33" d="M356.998,124.782c-3.049,0-5.789-1.213-7.787-3.179c-1.995-1.97-3.22-4.666-3.222-7.663
						c0.001-2.997,1.226-5.693,3.221-7.663c1.998-1.966,4.738-3.177,7.786-3.178c1.134-0.001,2.052-0.91,2.053-2.031
						c0-1.123-0.918-2.032-2.051-2.032c-4.166-0.002-7.955,1.669-10.684,4.362c-2.731,2.689-4.429,6.429-4.427,10.541
						c-0.003,4.112,1.697,7.853,4.429,10.543c2.728,2.693,6.517,4.363,10.681,4.361c1.134,0.001,2.052-0.909,2.052-2.03
						C359.049,125.691,358.131,124.782,356.998,124.782"/>
					<path id="Fill-39" d="M123.518,113.716l0,2.033l23.708,0l0,21.676H125.55l0-23.709L123.518,113.716l0,2.033L123.518,113.716
						l-2.033,0v25.743c0,0.534,0.217,1.059,0.595,1.437s0.903,0.596,1.437,0.596h25.743c0.536,0,1.06-0.216,1.437-0.595
						c0.38-0.378,0.595-0.902,0.596-1.437l-0.001-25.743c0.001-0.535-0.216-1.058-0.595-1.437c-0.379-0.379-0.903-0.596-1.438-0.596
						l-25.742,0c-0.535,0-1.06,0.217-1.439,0.596c-0.378,0.378-0.595,0.902-0.595,1.437L123.518,113.716"/>
					<path id="Fill-40" d="M122.615,279.018l-0.001,2.033l23.709,0l0,21.677l-21.677-0.001l0.001-23.709H122.615l-0.001,2.033
						L122.615,279.018l-2.034,0.001v25.741c0,0.537,0.217,1.06,0.596,1.438c0.378,0.379,0.902,0.596,1.437,0.596l25.743,0
						c0.535,0,1.059-0.217,1.437-0.596c0.379-0.379,0.596-0.902,0.597-1.437l-0.001-25.742c0.001-0.535-0.216-1.06-0.595-1.437
						c-0.378-0.379-0.902-0.596-1.438-0.596h-25.742c-0.536,0-1.06,0.217-1.438,0.596c-0.379,0.379-0.596,0.903-0.596,1.438
						L122.615,279.018"/>
					<path id="Fill-43" d="M271.156,252.02c-0.412-0.003-0.66-0.077-0.91-0.204c-0.218-0.115-0.445-0.288-0.694-0.557
						c-0.439-0.465-0.916-1.231-1.414-2.15c-0.763-1.378-1.562-3.094-2.923-4.616c-0.682-0.755-1.528-1.459-2.57-1.958
						c-1.04-0.501-2.257-0.78-3.586-0.778c-1.15,0-2.081,0.938-2.081,2.094c-0.001,1.156,0.931,2.094,2.081,2.094
						c0.677,0.001,1.179,0.114,1.608,0.287c0.375,0.154,0.7,0.36,1.016,0.635c0.557,0.476,1.084,1.186,1.596,2.056
						c0.782,1.298,1.478,2.906,2.569,4.393c0.55,0.74,1.226,1.464,2.123,2.014c0.893,0.553,2.008,0.885,3.186,0.878
						c1.149,0,2.08-0.938,2.081-2.094C273.238,252.959,272.306,252.02,271.156,252.02"/>
					<path id="Fill-44" d="M295.545,252.02c-0.413-0.003-0.661-0.078-0.912-0.205c-0.218-0.113-0.443-0.287-0.694-0.557
						c-0.438-0.465-0.914-1.229-1.415-2.15c-0.761-1.377-1.56-3.093-2.92-4.613c-0.684-0.758-1.528-1.46-2.57-1.96
						c-1.039-0.502-2.258-0.782-3.587-0.78c-1.148,0.001-2.08,0.939-2.08,2.095c0,1.156,0.932,2.094,2.08,2.095
						c0.679,0.001,1.181,0.113,1.609,0.286c0.374,0.154,0.699,0.36,1.016,0.635c0.557,0.477,1.083,1.186,1.595,2.055
						c0.782,1.3,1.479,2.909,2.569,4.395c0.55,0.739,1.226,1.463,2.123,2.015c0.893,0.552,2.008,0.884,3.187,0.878
						c1.148-0.001,2.08-0.936,2.08-2.095C297.625,252.959,296.694,252.021,295.545,252.02"/>
					<path id="Fill-45" d="M271.705,256.208c1.026,0.004,2.005-0.241,2.828-0.675c0.722-0.378,1.321-0.879,1.819-1.416
						c0.87-0.943,1.467-1.991,2.018-2.991c0.812-1.505,1.534-2.922,2.354-3.814c0.407-0.45,0.818-0.772,1.284-0.997
						c0.47-0.224,1.016-0.368,1.794-0.37c1.15-0.001,2.081-0.938,2.081-2.094c-0.001-1.157-0.931-2.094-2.081-2.094
						c-1.157,0-2.228,0.208-3.174,0.597c-0.827,0.337-1.549,0.806-2.162,1.336c-1.077,0.934-1.829,2.032-2.457,3.087
						c-0.928,1.581-1.626,3.107-2.328,4.033c-0.345,0.467-0.666,0.771-0.953,0.943c-0.292,0.171-0.55,0.263-1.023,0.269
						c-1.148-0.001-2.081,0.938-2.081,2.094C269.623,255.272,270.556,256.209,271.705,256.208"/>
					<path id="Fill-46" d="M295.19,256.208c1.025,0.005,2.004-0.24,2.828-0.675c0.723-0.378,1.322-0.88,1.818-1.416
						c0.871-0.944,1.469-1.989,2.018-2.989c0.811-1.506,1.534-2.924,2.355-3.815c0.407-0.451,0.816-0.773,1.283-0.997
						c0.471-0.224,1.016-0.369,1.795-0.371c1.149,0,2.081-0.937,2.081-2.094c-0.001-1.157-0.933-2.094-2.081-2.094
						c-1.157-0.001-2.23,0.208-3.176,0.595c-0.827,0.338-1.548,0.807-2.161,1.338c-1.077,0.933-1.829,2.032-2.456,3.086
						c-0.929,1.582-1.627,3.107-2.329,4.033c-0.346,0.467-0.666,0.769-0.953,0.943c-0.291,0.171-0.55,0.262-1.023,0.269
						c-1.15-0.001-2.08,0.938-2.08,2.094C293.11,255.272,294.041,256.209,295.19,256.208"/>
					<path id="Fill-47" d="M338.903,438.099c-0.414-0.005-0.662-0.08-0.912-0.207c-0.218-0.115-0.444-0.287-0.695-0.557
						c-0.438-0.466-0.914-1.229-1.413-2.15c-0.763-1.377-1.562-3.093-2.922-4.615c-0.682-0.757-1.529-1.461-2.572-1.96
						c-1.039-0.502-2.257-0.78-3.585-0.778c-1.149,0-2.081,0.936-2.081,2.094c0,1.157,0.932,2.094,2.081,2.094
						c0.677,0.002,1.179,0.114,1.609,0.287c0.373,0.153,0.697,0.359,1.017,0.635c0.555,0.477,1.081,1.188,1.595,2.055
						c0.781,1.299,1.477,2.908,2.567,4.395c0.552,0.74,1.226,1.464,2.124,2.014c0.893,0.555,2.007,0.886,3.185,0.879
						c1.15,0.001,2.082-0.938,2.081-2.094C340.984,439.036,340.051,438.099,338.903,438.099"/>
					<path id="Fill-48" d="M363.291,438.098c-0.412-0.004-0.662-0.079-0.912-0.206c-0.217-0.113-0.443-0.286-0.695-0.557
						c-0.438-0.465-0.914-1.228-1.413-2.149c-0.762-1.377-1.561-3.093-2.921-4.614c-0.683-0.757-1.53-1.46-2.572-1.96
						c-1.04-0.501-2.257-0.78-3.586-0.778c-1.149,0-2.081,0.937-2.081,2.094c0,1.157,0.931,2.093,2.081,2.093
						c0.678,0.002,1.18,0.114,1.607,0.288c0.375,0.154,0.7,0.359,1.018,0.635c0.555,0.476,1.082,1.186,1.595,2.055
						c0.782,1.299,1.478,2.909,2.569,4.394c0.55,0.74,1.226,1.463,2.123,2.014c0.891,0.553,2.007,0.885,3.185,0.879
						c1.149,0,2.08-0.939,2.08-2.094C365.372,439.035,364.441,438.099,363.291,438.098"/>
					<path id="Fill-49" d="M338.549,442.286c1.024,0.002,2.003-0.242,2.827-0.677c0.724-0.377,1.322-0.879,1.818-1.415
						c0.871-0.944,1.467-1.991,2.019-2.992c0.811-1.505,1.533-2.923,2.353-3.815c0.407-0.45,0.818-0.772,1.284-0.997
						c0.47-0.224,1.016-0.367,1.795-0.37c1.148,0,2.08-0.936,2.08-2.094c0-1.156-0.931-2.094-2.08-2.094
						c-1.158-0.002-2.23,0.207-3.174,0.594c-0.828,0.339-1.551,0.806-2.163,1.339c-1.076,0.934-1.83,2.033-2.457,3.084
						c-0.927,1.583-1.625,3.108-2.327,4.034c-0.347,0.467-0.667,0.771-0.953,0.943c-0.292,0.172-0.551,0.264-1.025,0.271
						c-1.149,0-2.08,0.936-2.08,2.094C336.467,441.347,337.398,442.286,338.549,442.286"/>
					<path id="Fill-50" d="M362.938,442.286c1.025,0.004,2.003-0.242,2.827-0.678c0.722-0.377,1.32-0.878,1.819-1.415
						c0.869-0.945,1.467-1.99,2.018-2.99c0.812-1.506,1.535-2.923,2.354-3.814c0.407-0.451,0.816-0.772,1.283-0.997
						c0.47-0.223,1.015-0.367,1.794-0.37l0,0l0-2.089l-0.327,2.062c0.152,0.025,0.268,0.026,0.327,0.027l0-2.089l-0.327,2.062
						c1.134,0.183,2.201-0.595,2.383-1.736c0.182-1.143-0.591-2.217-1.726-2.4c-0.152-0.023-0.27-0.025-0.33-0.025l-0.001,0
						c-1.156-0.002-2.229,0.206-3.173,0.595c-0.827,0.338-1.549,0.807-2.163,1.338c-1.076,0.932-1.827,2.032-2.456,3.085
						c-0.928,1.582-1.625,3.107-2.327,4.033c-0.347,0.467-0.666,0.77-0.953,0.943c-0.292,0.172-0.551,0.264-1.023,0.271
						c-1.149,0-2.08,0.938-2.08,2.094C360.856,441.349,361.788,442.286,362.938,442.286"/>
					<path id="Fill-51" d="M371.421,169.822c-0.412-0.004-0.66-0.079-0.911-0.206c-0.219-0.114-0.445-0.287-0.695-0.557
						c-0.44-0.466-0.915-1.23-1.413-2.15c-0.764-1.377-1.562-3.092-2.923-4.613c-0.682-0.758-1.528-1.46-2.57-1.96
						c-1.04-0.503-2.258-0.782-3.586-0.778c-1.149,0-2.081,0.937-2.081,2.094c0,1.157,0.931,2.094,2.081,2.094
						c0.677,0.001,1.18,0.113,1.607,0.287c0.374,0.153,0.7,0.36,1.018,0.635c0.556,0.477,1.083,1.188,1.595,2.055
						c0.781,1.302,1.478,2.909,2.568,4.395c0.55,0.74,1.226,1.463,2.124,2.014c0.893,0.554,2.007,0.886,3.185,0.879
						c1.15,0.001,2.081-0.938,2.081-2.094C373.502,170.759,372.571,169.821,371.421,169.822"/>
					<path id="Fill-52" d="M394.907,169.821c-0.414-0.005-0.66-0.079-0.911-0.206c-0.22-0.114-0.444-0.288-0.694-0.557
						c-0.439-0.465-0.915-1.229-1.414-2.15c-0.764-1.376-1.562-3.092-2.922-4.614c-0.683-0.758-1.529-1.46-2.569-1.959
						c-1.041-0.503-2.258-0.782-3.589-0.778c-1.146,0-2.078,0.938-2.078,2.094c0,1.157,0.932,2.094,2.081,2.094
						c0.677,0.002,1.179,0.113,1.608,0.287c0.374,0.154,0.698,0.36,1.016,0.635c0.555,0.476,1.082,1.187,1.595,2.055
						c0.781,1.299,1.478,2.908,2.568,4.395c0.55,0.74,1.226,1.463,2.124,2.014c0.891,0.553,2.007,0.885,3.185,0.879
						c1.149,0,2.081-0.938,2.081-2.094C396.987,170.758,396.056,169.821,394.907,169.821"/>
					<path id="Fill-53" d="M371.066,174.009c1.025,0.003,2.005-0.242,2.828-0.676c0.724-0.377,1.322-0.879,1.82-1.416
						c0.871-0.944,1.467-1.991,2.018-2.991c0.811-1.503,1.535-2.923,2.355-3.814c0.407-0.45,0.815-0.773,1.283-0.997
						c0.47-0.223,1.016-0.367,1.794-0.37c1.148-0.001,2.081-0.937,2.081-2.094c-0.001-1.157-0.931-2.094-2.08-2.094
						c-1.157-0.001-2.229,0.207-3.174,0.595c-0.828,0.336-1.55,0.807-2.163,1.337c-1.075,0.934-1.83,2.033-2.456,3.086
						c-0.929,1.582-1.627,3.107-2.328,4.033c-0.346,0.467-0.668,0.77-0.953,0.943c-0.293,0.173-0.553,0.263-1.025,0.271
						c-1.148-0.001-2.081,0.937-2.081,2.094C368.986,173.072,369.917,174.009,371.066,174.009"/>
					<path id="Fill-54" d="M395.456,174.009c1.025,0.003,2.004-0.243,2.828-0.676c0.722-0.378,1.322-0.88,1.817-1.416
						c0.871-0.945,1.469-1.99,2.018-2.991c0.813-1.504,1.536-2.922,2.355-3.814c0.407-0.45,0.815-0.773,1.282-0.998
						c0.472-0.223,1.017-0.368,1.797-0.369c1.148,0,2.079-0.937,2.078-2.094c0-1.157-0.93-2.094-2.079-2.094
						c-1.157-0.001-2.23,0.206-3.175,0.595c-0.826,0.337-1.548,0.807-2.162,1.336c-1.075,0.934-1.829,2.033-2.457,3.087
						c-0.927,1.582-1.625,3.107-2.328,4.033c-0.345,0.467-0.667,0.769-0.954,0.943c-0.291,0.171-0.55,0.264-1.024,0.27
						c-1.148,0-2.079,0.937-2.079,2.094C393.375,173.072,394.305,174.009,395.456,174.009"/>
					<path id="Fill-63" d="M198.592,149.895c-0.005,0.413-0.079,0.66-0.205,0.912c-0.115,0.217-0.288,0.443-0.558,0.692
						c-0.465,0.439-1.23,0.915-2.15,1.414c-1.377,0.763-3.093,1.562-4.614,2.921c-0.758,0.683-1.46,1.53-1.96,2.572
						c-0.502,1.04-0.781,2.257-0.778,3.587c0,1.149,0.937,2.08,2.094,2.08c1.156,0,2.094-0.932,2.094-2.081
						c0.001-0.677,0.113-1.18,0.287-1.608c0.154-0.374,0.36-0.699,0.634-1.018c0.476-0.555,1.187-1.082,2.056-1.595
						c1.299-0.781,2.909-1.477,4.394-2.568c0.74-0.55,1.463-1.226,2.015-2.124c0.552-0.892,0.885-2.007,0.878-3.185
						c0-1.149-0.937-2.081-2.094-2.081C199.53,147.814,198.592,148.746,198.592,149.895"/>
					<path id="Fill-64" d="M198.591,125.506c-0.003,0.413-0.078,0.66-0.205,0.912c-0.113,0.219-0.287,0.444-0.557,0.694
						c-0.465,0.44-1.229,0.915-2.15,1.414c-1.377,0.763-3.093,1.56-4.614,2.923c-0.757,0.682-1.46,1.528-1.96,2.569
						c-0.501,1.04-0.78,2.257-0.777,3.586c0,1.149,0.937,2.08,2.094,2.081c1.156,0,2.095-0.932,2.094-2.081
						c0-0.678,0.113-1.181,0.287-1.608c0.154-0.374,0.36-0.698,0.634-1.018c0.477-0.556,1.187-1.082,2.056-1.594
						c1.3-0.781,2.909-1.479,4.395-2.568c0.739-0.551,1.463-1.226,2.015-2.124c0.553-0.892,0.885-2.007,0.878-3.185
						c0.001-1.148-0.937-2.081-2.095-2.081C199.53,123.426,198.592,124.358,198.591,125.506"/>
					<path id="Fill-65" d="M202.781,149.346c0.003-1.025-0.242-2.004-0.676-2.827c-0.378-0.723-0.88-1.322-1.416-1.82
						c-0.944-0.871-1.991-1.468-2.991-2.019c-1.505-0.812-2.923-1.534-3.814-2.353c-0.45-0.407-0.772-0.817-0.999-1.284
						c-0.221-0.47-0.366-1.016-0.368-1.794c0-1.15-0.938-2.082-2.094-2.082c-1.157,0-2.094,0.932-2.094,2.081
						c-0.002,1.156,0.207,2.229,0.594,3.173c0.338,0.828,0.807,1.55,1.338,2.163c0.934,1.076,2.033,1.83,3.086,2.457
						c1.582,0.928,3.107,1.625,4.033,2.329c0.467,0.345,0.771,0.666,0.944,0.952c0.171,0.292,0.263,0.552,0.269,1.025
						c-0.001,1.148,0.938,2.08,2.094,2.08S202.78,150.495,202.781,149.346"/>
					<path id="Fill-66" d="M202.78,125.861c0.004-1.025-0.242-2.004-0.675-2.827c-0.378-0.723-0.88-1.322-1.417-1.82
						c-0.944-0.869-1.99-1.466-2.991-2.017c-1.505-0.812-2.923-1.535-3.815-2.355c-0.45-0.408-0.772-0.816-0.997-1.285
						c-0.223-0.469-0.366-1.015-0.369-1.794c0-1.148-0.938-2.08-2.094-2.08c-1.157,0-2.094,0.932-2.094,2.081
						c-0.001,1.157,0.206,2.23,0.594,3.174c0.338,0.827,0.807,1.55,1.338,2.163c0.933,1.075,2.033,1.83,3.086,2.457
						c1.582,0.928,3.107,1.626,4.033,2.328c0.467,0.347,0.77,0.666,0.943,0.953c0.171,0.292,0.263,0.55,0.27,1.024
						c0,1.149,0.938,2.08,2.093,2.08C201.843,127.942,202.781,127.01,202.78,125.861"/>
					<path id="Fill-67" d="M395.509,347.715c-0.005,0.412-0.078,0.661-0.206,0.912c-0.114,0.219-0.289,0.443-0.558,0.693
						c-0.465,0.44-1.228,0.915-2.149,1.414c-1.378,0.762-3.093,1.561-4.615,2.922c-0.755,0.684-1.46,1.53-1.96,2.572
						c-0.502,1.041-0.78,2.257-0.777,3.586c-0.001,1.148,0.937,2.081,2.094,2.081c1.156,0,2.094-0.932,2.094-2.081
						c0.001-0.678,0.113-1.179,0.287-1.608c0.153-0.374,0.359-0.699,0.634-1.018c0.476-0.555,1.188-1.082,2.056-1.594
						c1.3-0.782,2.908-1.48,4.395-2.568c0.738-0.551,1.462-1.227,2.014-2.124c0.553-0.893,0.885-2.007,0.879-3.185
						c-0.001-1.149-0.938-2.081-2.095-2.08C396.446,345.634,395.509,346.566,395.509,347.715"/>
					<path id="Fill-68" d="M395.509,324.23c-0.005,0.412-0.079,0.66-0.206,0.911c-0.115,0.218-0.287,0.445-0.557,0.695
						c-0.466,0.439-1.23,0.915-2.15,1.414c-1.377,0.762-3.093,1.56-4.616,2.922c-0.755,0.681-1.46,1.527-1.958,2.57
						c-0.503,1.039-0.78,2.257-0.779,3.585c0.001,1.15,0.938,2.081,2.094,2.081c1.157,0,2.094-0.932,2.094-2.081
						c0.001-0.677,0.113-1.179,0.287-1.608c0.153-0.374,0.359-0.699,0.634-1.018c0.476-0.555,1.186-1.082,2.055-1.595
						c1.3-0.781,2.909-1.478,4.396-2.567c0.738-0.552,1.462-1.226,2.014-2.124c0.552-0.894,0.885-2.006,0.879-3.185
						c-0.001-1.15-0.938-2.081-2.095-2.081C396.447,322.149,395.509,323.08,395.509,324.23"/>
					<path id="Fill-69" d="M399.698,348.07c0.003-1.025-0.242-2.003-0.678-2.828c-0.377-0.721-0.878-1.321-1.415-1.818
						c-0.943-0.87-1.99-1.468-2.99-2.018c-1.506-0.811-2.924-1.534-3.815-2.354c-0.448-0.408-0.772-0.818-0.997-1.284
						c-0.222-0.47-0.367-1.016-0.369-1.795c0-1.149-0.938-2.081-2.095-2.081c-1.156,0-2.093,0.933-2.094,2.08
						c-0.001,1.159,0.207,2.23,0.595,3.175c0.338,0.828,0.807,1.55,1.338,2.163c0.934,1.074,2.033,1.829,3.086,2.456
						c1.582,0.929,3.107,1.625,4.033,2.328c0.467,0.346,0.769,0.666,0.943,0.953c0.172,0.292,0.262,0.55,0.269,1.023
						c0,1.149,0.938,2.081,2.094,2.08C398.759,350.151,399.697,349.22,399.698,348.07"/>
					<path id="Fill-70" d="M399.698,324.585c0.003-1.026-0.242-2.005-0.677-2.828c-0.377-0.722-0.879-1.321-1.416-1.82
						c-0.943-0.869-1.99-1.467-2.99-2.018c-1.506-0.811-2.924-1.534-3.814-2.353c-0.45-0.409-0.773-0.818-0.997-1.284
						c-0.224-0.47-0.367-1.016-0.37-1.794c0-1.15-0.938-2.081-2.094-2.081c-1.157,0-2.094,0.932-2.095,2.081
						c-0.001,1.157,0.207,2.228,0.596,3.173c0.337,0.827,0.806,1.55,1.337,2.164c0.934,1.076,2.033,1.829,3.086,2.456
						c1.582,0.927,3.107,1.626,4.033,2.328c0.467,0.346,0.769,0.667,0.943,0.953c0.172,0.292,0.262,0.551,0.269,1.023
						c0,1.149,0.936,2.081,2.094,2.081C398.759,326.665,399.698,325.734,399.698,324.585"/>
					<path id="Fill-71" d="M151.621,366.684c-0.004,0.413-0.079,0.66-0.206,0.912c-0.114,0.217-0.288,0.444-0.556,0.694
						c-0.466,0.439-1.229,0.915-2.15,1.413c-1.377,0.764-3.092,1.562-4.614,2.923c-0.755,0.682-1.46,1.529-1.959,2.571
						c-0.502,1.039-0.782,2.255-0.778,3.585c0,1.15,0.938,2.081,2.094,2.082c1.156,0,2.094-0.932,2.095-2.081
						c0-0.678,0.113-1.179,0.286-1.609c0.154-0.373,0.36-0.698,0.635-1.016c0.477-0.557,1.187-1.082,2.056-1.594
						c1.3-0.782,2.908-1.48,4.395-2.569c0.739-0.551,1.463-1.227,2.013-2.125c0.555-0.892,0.885-2.007,0.879-3.184
						c0-1.149-0.938-2.081-2.094-2.081C152.559,364.603,151.621,365.534,151.621,366.684"/>
					<path id="Fill-72" d="M151.621,343.198c-0.004,0.413-0.079,0.662-0.206,0.913c-0.114,0.218-0.287,0.443-0.558,0.694
						c-0.466,0.438-1.228,0.915-2.15,1.412c-1.377,0.762-3.092,1.561-4.614,2.923c-0.756,0.681-1.46,1.527-1.96,2.569
						c-0.501,1.04-0.78,2.258-0.777,3.586c0,1.148,0.937,2.08,2.094,2.081c1.156,0,2.095-0.932,2.094-2.081
						c0.001-0.677,0.113-1.179,0.287-1.608c0.154-0.374,0.36-0.698,0.635-1.017c0.476-0.556,1.187-1.082,2.055-1.595
						c1.299-0.782,2.909-1.478,4.394-2.567c0.741-0.551,1.464-1.226,2.015-2.126c0.553-0.893,0.884-2.006,0.878-3.184
						c0-1.15-0.938-2.081-2.094-2.081C152.558,341.118,151.621,342.051,151.621,343.198"/>
					<path id="Fill-73" d="M155.81,367.04c0.003-1.026-0.242-2.005-0.677-2.828c-0.378-0.724-0.879-1.322-1.416-1.819
						c-0.944-0.871-1.99-1.468-2.991-2.019c-1.505-0.813-2.923-1.534-3.813-2.354c-0.45-0.407-0.773-0.816-0.998-1.285
						c-0.223-0.469-0.367-1.016-0.369-1.794c0-1.148-0.938-2.08-2.094-2.08c-1.157,0-2.094,0.932-2.095,2.08
						c-0.001,1.158,0.207,2.23,0.595,3.174c0.338,0.827,0.808,1.55,1.338,2.163c0.933,1.075,2.033,1.828,3.086,2.456
						c1.582,0.928,3.107,1.626,4.033,2.328c0.467,0.347,0.769,0.667,0.944,0.953c0.17,0.291,0.262,0.551,0.269,1.025
						c0,1.148,0.937,2.08,2.095,2.08C154.872,369.12,155.809,368.188,155.81,367.04"/>
					<path id="Fill-74" d="M155.809,342.65c0.004-1.025-0.241-2.003-0.676-2.828c-0.378-0.723-0.88-1.322-1.416-1.819
						c-0.944-0.87-1.99-1.467-2.992-2.019c-1.504-0.811-2.922-1.534-3.813-2.353c-0.449-0.408-0.772-0.818-0.997-1.284
						c-0.223-0.471-0.367-1.016-0.369-1.795c0-1.149-0.939-2.081-2.095-2.081c-1.156,0.001-2.094,0.932-2.094,2.081
						c-0.002,1.157,0.208,2.229,0.595,3.174c0.338,0.828,0.807,1.55,1.337,2.163c0.934,1.077,2.034,1.829,3.087,2.457
						c1.582,0.929,3.106,1.627,4.033,2.328c0.467,0.347,0.769,0.667,0.942,0.953c0.172,0.292,0.264,0.551,0.271,1.024
						c-0.001,1.15,0.937,2.081,2.093,2.081C154.871,344.731,155.809,343.8,155.809,342.65"/>
					<path id="Fill-75" d="M299.669,282.404l29.335,0.001c1.128,0,2.044-1.011,2.044-2.258c0-1.247-0.915-2.259-2.046-2.259H299.67
						c-1.128,0-2.045,1.012-2.045,2.259C297.626,281.393,298.541,282.404,299.669,282.404"/>
					<path id="Fill-77" d="M302.38,62.002l29.332,0c1.13,0,2.045-1.011,2.045-2.258c0-1.247-0.915-2.257-2.044-2.258l-29.333,0.001
						c-1.129-0.001-2.045,1.01-2.045,2.257C300.335,60.99,301.25,62.002,302.38,62.002"/>
					<path id="Fill-79" d="M128.948,432.349h29.332c1.13,0.001,2.045-1.011,2.045-2.256c0-1.248-0.915-2.259-2.045-2.259h-29.332
						c-1.13,0-2.044,1.011-2.045,2.259C126.904,431.338,127.819,432.35,128.948,432.349"/>
					<path id="Fill-80" d="M205.305,374.854l20.373-20.372c0.784-0.784,0.785-2.056,0-2.839c-0.784-0.785-2.056-0.786-2.84-0.001
						l-20.372,20.372c-0.785,0.785-0.785,2.056,0,2.841C203.25,375.64,204.52,375.638,205.305,374.854"/>
					<path id="Fill-83" d="M256.075,125.232l5.291-9.235l0.93,0.001l-4.825,8.422l16.214-0.013l16.219-0.008l-8.118-14.126
						l0.698-0.406l8.817,15.344l-17.615,0.008L256.075,125.232 M263.692,111.939l2.505-4.374l0.465,0.811l-1.09,1.904l-0.95,1.658
						L263.692,111.939 M281.786,110.272l-8.12-14.129l-4.678,8.172l-0.466-0.811l5.143-8.984l8.82,15.346L281.786,110.272"/>
					<path id="Fill-84" d="M261.494,116.199l2.48-4.108l0.994-0.002l-2.48,4.109L261.494,116.199 M267.143,108.484l-0.496-0.821
						l2.479-4.111l0.497,0.822L267.143,108.484"/>
					<path id="Fill-85" d="M228.072,306.793l5.292-9.234l0.932-0.001l-4.826,8.423l16.215-0.013l16.219-0.008l-8.118-14.127
						l0.349-0.203l0.349-0.203l8.817,15.342l-17.615,0.009L228.072,306.793 M235.69,293.5l2.504-4.375l0.467,0.812l-1.091,1.905
						l-0.949,1.658L235.69,293.5 M253.785,291.834l-8.12-14.129l-4.679,8.172l-0.465-0.811l5.144-8.985l8.819,15.347l-0.349,0.203
						L253.785,291.834"/>
					<path id="Fill-86" d="M233.492,297.76l2.48-4.107l0.993-0.001l-2.48,4.109L233.492,297.76 M239.142,290.044l-0.498-0.82
						l2.481-4.11l0.497,0.822L239.142,290.044"/>
					<path id="Fill-87" d="M326.53,361.893l5.293-9.234l0.93-0.002l-4.826,8.424l16.216-0.012l16.218-0.009l-8.117-14.125
						l0.699-0.406l8.817,15.342l-17.615,0.008L326.53,361.893 M334.148,348.601l2.505-4.375l0.467,0.812l-2.04,3.562
						L334.148,348.601 M352.243,346.934l-8.12-14.13l-4.678,8.174l-0.467-0.812l5.145-8.984l8.82,15.346L352.243,346.934"/>
					<path id="Fill-88" d="M331.047,352.861l2.481-4.108l0.992-0.001l-2.479,4.109L331.047,352.861 M336.697,345.146l-0.496-0.821
						l2.478-4.109l0.497,0.821L336.697,345.146"/>
					<path id="Fill-89" d="M404.972,250.79L392.4,238.235l-3.045-3.038l0.242-0.908l3.375,3.37l11.577,11.559l8.45-31.602
						l-15.799,4.246l-4.612,1.24l0.243-0.907l4.159-1.117l17.158-4.613L404.972,250.79 M386.031,231.879l-6.207-6.193l8.471-2.275
						l-0.244,0.907l-6.655,1.786l4.877,4.867L386.031,231.879"/>
					<path id="Fill-90" d="M388.778,234.53l-3.533-3.226l0.258-0.882l3.532,3.225L388.778,234.53 M387.392,223.951l0.259-0.883
						l4.821-1.184l-0.258,0.881L387.392,223.951"/>
					<path id="Fill-99" d="M298.497,216.465c-6.435-0.001-11.826-4.466-13.227-10.459c0.262-0.104,0.519-0.215,0.773-0.334
						c0.533,2.407,1.748,4.556,3.436,6.24c2.308,2.304,5.496,3.727,9.018,3.726c3.523,0.001,6.709-1.422,9.018-3.725
						c2.31-2.304,3.735-5.484,3.736-8.998c0-3.515-1.426-6.693-3.736-8.998c-2.308-2.303-5.494-3.726-9.018-3.725
						c-1.283,0-2.52,0.186-3.688,0.539c-0.021-0.281-0.049-0.56-0.086-0.836c1.199-0.344,2.466-0.53,3.774-0.53
						c7.501,0.001,13.581,6.067,13.581,13.55C312.079,210.398,305.997,216.463,298.497,216.465 M284.98,201.584
						c0.396-4.043,2.572-7.564,5.736-9.775c0,0.026,0.001,0.052,0.001,0.078c-0.001,0.331-0.016,0.655-0.044,0.979
						c-0.418,0.326-0.819,0.677-1.193,1.052c-1.887,1.883-3.185,4.351-3.598,7.11C285.591,201.227,285.289,201.412,284.98,201.584"
						/>
					<path id="Fill-100" d="M285.336,205.625c-0.233-1.003-0.357-2.046-0.358-3.12c0.001-0.453,0.023-0.9,0.066-1.343
						c0.311-0.172,0.615-0.36,0.905-0.561c-0.09,0.622-0.138,1.257-0.138,1.904c0,0.956,0.104,1.887,0.302,2.782
						C285.858,205.407,285.599,205.52,285.336,205.625 M290.762,192.363c0.028-0.325,0.042-0.654,0.042-0.988
						c0.001-0.026,0-0.051,0.001-0.079c1.211-0.851,2.569-1.508,4.025-1.93c0.037,0.278,0.065,0.559,0.085,0.843
						C293.392,190.669,291.988,191.407,290.762,192.363"/>
					<path id="Fill-103" d="M241.589,454.932c-6.434,0-11.824-4.465-13.226-10.459c0.261-0.104,0.519-0.215,0.772-0.335
						c0.534,2.408,1.749,4.558,3.436,6.241c2.309,2.304,5.495,3.727,9.018,3.727c3.523,0,6.709-1.424,9.018-3.727
						c2.308-2.303,3.734-5.483,3.735-8.997c0-3.514-1.426-6.694-3.735-8.997c-2.31-2.303-5.496-3.727-9.018-3.726
						c-1.284-0.001-2.52,0.189-3.687,0.54c-0.022-0.281-0.05-0.56-0.086-0.835c1.198-0.346,2.462-0.53,3.773-0.53
						c7.501,0,13.581,6.065,13.581,13.549C255.171,448.866,249.091,454.932,241.589,454.932 M228.072,440.052
						c0.394-4.043,2.572-7.566,5.736-9.776c0,0.026,0,0.051,0,0.078c0,0.33-0.014,0.658-0.042,0.98
						c-0.419,0.325-0.819,0.676-1.194,1.052c-1.889,1.882-3.186,4.351-3.597,7.11C228.683,439.695,228.382,439.881,228.072,440.052"
						/>
					<path id="Fill-104" d="M228.429,444.093c-0.234-1.002-0.356-2.046-0.357-3.119c0.001-0.454,0.021-0.901,0.065-1.342
						c0.311-0.174,0.613-0.36,0.906-0.562c-0.093,0.622-0.141,1.258-0.14,1.905c0,0.955,0.104,1.888,0.3,2.782
						C228.95,443.875,228.691,443.988,228.429,444.093 M233.855,430.832c0.028-0.326,0.042-0.657,0.042-0.989
						c0-0.026,0-0.052,0.001-0.078c1.211-0.851,2.568-1.509,4.025-1.931c0.035,0.278,0.066,0.56,0.086,0.843
						C236.485,429.137,235.08,429.876,233.855,430.832"/>
					<path id="Fill-105" d="M315.692,421.511l-0.826,0c0-3.515-1.425-6.693-3.727-8.997c-2.304-2.303-5.482-3.727-8.997-3.726
						c-1.28-0.001-2.514,0.188-3.678,0.54c-0.021-0.281-0.049-0.56-0.086-0.837c1.194-0.344,2.458-0.529,3.763-0.529
						C309.625,407.961,315.692,414.027,315.692,421.511 M289.418,421.511l-0.826,0c0-4.597,2.288-8.657,5.787-11.107
						c0,0.026,0,0.053,0,0.079c0,0.29,0.059,0.566,0.169,0.817c-0.496,0.37-0.966,0.777-1.403,1.214
						C290.842,414.817,289.418,417.996,289.418,421.511"/>
					<path id="Fill-106" d="M295.064,411.574c-0.095-0.242-0.149-0.507-0.149-0.788c0-0.027,0-0.051,0-0.077
						c1.067-0.812,2.257-1.442,3.537-1.845c0.033,0.268,0.058,0.536,0.077,0.807C297.267,410.085,296.098,410.736,295.064,411.574"
						/>
					<path id="Fill-107" d="M211.814,221.884l-0.826,0c0-3.515-1.424-6.694-3.726-8.997c-2.305-2.303-5.482-3.727-8.997-3.727
						c-1.279,0-2.514,0.188-3.678,0.54c-0.022-0.281-0.051-0.56-0.086-0.836c1.195-0.345,2.457-0.53,3.764-0.53
						C205.746,208.335,211.812,214.4,211.814,221.884 M185.54,221.884l-0.826,0c0-4.596,2.288-8.657,5.787-11.107
						c0.001,0.026,0.001,0.052,0,0.079c0,0.29,0.06,0.568,0.168,0.818c-0.495,0.37-0.964,0.776-1.402,1.214
						C186.963,215.191,185.539,218.369,185.54,221.884"/>
					<path id="Fill-108" d="M191.187,211.948c-0.096-0.242-0.15-0.509-0.15-0.79c0-0.024,0-0.049,0-0.074
						c1.065-0.814,2.257-1.444,3.537-1.845c0.032,0.265,0.057,0.535,0.075,0.805C193.388,210.459,192.22,211.108,191.187,211.948"/>
					<path id="Fill-111" d="M376.212,138.781c-7.481,0-13.55-6.066-13.55-13.55s6.068-13.548,13.55-13.548l0,0.829
						c-3.516,0.001-6.694,1.424-8.998,3.726c-2.303,2.304-3.727,5.481-3.727,8.996c0,3.511,1.424,6.688,3.727,8.993
						c2.304,2.302,5.482,3.725,8.998,3.726L376.212,138.781"/>
					<path id="Fill-120" d="M168.455,151.427H142.26l0-9.426h0.802l0.001,8.596h24.59l0-25.439l-15.898,0l0-0.83h16.7
						L168.455,151.427 M143.063,137.852h-0.803l0-13.523h5.484l0,0.83l-4.682,0L143.063,137.852"/>
					<path id="Fill-121" d="M141.356,141.491h0.84l0-4.03l-0.84,0V141.491z M147.096,125.135h4.197l0.001-0.806l-4.197,0
						L147.096,125.135z"/>
					<path id="Fill-122" d="M166.649,316.729h-26.197l0-9.427h0.802l0,8.597h24.592l0-25.44h-15.897v-0.83l16.699,0.001
						L166.649,316.729 M141.255,303.153h-0.802V289.63l5.485,0.001v0.83l-4.682-0.001V303.153"/>
					<path id="Fill-123" d="M140.453,306.793h0.84v-4.031l-0.839,0.001L140.453,306.793z M146.193,290.436l4.197,0l-0.001-0.805
						h-4.196L146.193,290.436z"/>
					<path id="Fill-128" d="M290.386,265.242c-1.131,0-2.054-0.398-2.791-1.018c-0.742-0.625-1.311-1.457-1.834-2.355
						c-1.039-1.797-1.913-3.872-3.324-5.193c-0.942-0.88-2.094-1.452-3.78-1.456l-0.001-0.818c0.002-0.001,0.006-0.001,0.009-0.001
						c1.402,0.001,2.54,0.378,3.464,0.992c0.925,0.615,1.634,1.453,2.237,2.361c1.197,1.813,2.007,3.921,3.151,5.245
						c0.765,0.881,1.612,1.418,2.883,1.426l0.001,0.817C290.394,265.243,290.39,265.242,290.386,265.242"/>
					<path id="Fill-129" d="M313.873,265.242c-1.133,0.001-2.055-0.398-2.792-1.019c-0.742-0.624-1.312-1.456-1.835-2.355
						c-1.039-1.796-1.912-3.872-3.324-5.191c-0.941-0.88-2.092-1.453-3.779-1.456v-0.819c0.003,0,0.006,0.001,0.009,0.001
						c1.401-0.001,2.539,0.378,3.463,0.991c0.927,0.615,1.634,1.454,2.237,2.36c1.197,1.814,2.007,3.922,3.151,5.245
						c0.765,0.883,1.612,1.419,2.883,1.426l0,0.818C313.88,265.243,313.876,265.243,313.873,265.242"/>
					<path id="Fill-130" d="M290.419,265.242c-0.007,0-0.014,0-0.019,0l-0.001-0.817c0.956-0.004,1.661-0.311,2.288-0.833
						c0.624-0.521,1.152-1.274,1.654-2.137c1.009-1.726,1.886-3.88,3.471-5.378c1.052-0.995,2.445-1.675,4.311-1.675
						c0.006-0.001,0.012-0.001,0.019-0.001v0.819c-1.266,0.002-2.228,0.327-3.029,0.857c-0.801,0.532-1.442,1.277-2.009,2.132
						c-1.14,1.709-1.938,3.828-3.21,5.325C293.05,264.528,291.931,265.243,290.419,265.242"/>
					<path id="Fill-131" d="M313.906,265.242c-0.007,0-0.014,0-0.021,0l0-0.818c0.955-0.005,1.662-0.31,2.287-0.83
						c0.625-0.523,1.153-1.276,1.654-2.139c1.01-1.726,1.887-3.88,3.472-5.378c1.05-0.995,2.444-1.675,4.309-1.675
						c0.007,0,0.014,0,0.019,0v0.819c-1.265,0.001-2.226,0.327-3.028,0.857c-0.802,0.531-1.443,1.278-2.009,2.132
						c-1.14,1.709-1.937,3.829-3.212,5.325C316.535,264.528,315.417,265.242,313.906,265.242"/>
					<path id="Fill-132" d="M357.23,451.319c-1.132,0.001-2.055-0.397-2.791-1.019c-0.741-0.622-1.311-1.455-1.834-2.352
						c-1.04-1.799-1.912-3.873-3.324-5.195c-0.944-0.879-2.094-1.451-3.78-1.455l0-0.817c0.002-0.001,0.006,0,0.008,0
						c1.402,0,2.54,0.377,3.463,0.991c0.926,0.615,1.636,1.453,2.238,2.361c1.197,1.814,2.006,3.922,3.15,5.244
						c0.766,0.881,1.614,1.419,2.883,1.426l-0.001,0.817C357.239,451.319,357.233,451.318,357.23,451.319"/>
					<path id="Fill-133" d="M381.619,451.319c-1.131,0-2.055-0.398-2.792-1.02c-0.741-0.622-1.312-1.455-1.834-2.353
						c-1.039-1.798-1.913-3.872-3.323-5.192c-0.943-0.88-2.095-1.452-3.782-1.457l0-0.817c0.004-0.001,0.008-0.001,0.01,0
						c1.401-0.001,2.539,0.376,3.463,0.991c0.927,0.615,1.636,1.454,2.237,2.36c1.197,1.815,2.007,3.922,3.15,5.245
						c0.767,0.881,1.613,1.418,2.884,1.424l-0.001,0.818C381.627,451.319,381.622,451.319,381.619,451.319"/>
					<path id="Fill-134" d="M358.167,451.318c-0.008,0.001-0.014,0.001-0.02,0.001l0-0.817c0.957-0.004,1.662-0.311,2.289-0.832
						c0.623-0.521,1.152-1.274,1.653-2.138c1.01-1.725,1.888-3.879,3.471-5.377c1.051-0.996,2.445-1.676,4.31-1.675
						c0.007,0,0.013,0,0.019,0.001l0,0.817c-1.266,0.002-2.225,0.329-3.028,0.858c-0.8,0.531-1.444,1.277-2.01,2.132
						c-1.139,1.709-1.937,3.83-3.211,5.325C360.797,450.605,359.677,451.319,358.167,451.318"/>
					<path id="Fill-135" d="M381.632,451.319l-0.001-0.409l0.001-0.409c0.951-0.003,1.652-0.31,2.275-0.831
						c0.62-0.522,1.146-1.274,1.646-2.139c1.002-1.724,1.877-3.878,3.451-5.377c1.046-0.995,2.432-1.674,4.286-1.673
						c0.006-0.001,0.013,0,0.019,0l0,0l0.066,0.005l-0.129,0.807l0.064-0.398v0.403l0,0c-1.259,0.001-2.216,0.328-3.013,0.857
						c-0.794,0.531-1.434,1.277-1.998,2.133c-1.132,1.707-1.925,3.828-3.193,5.323c-0.837,0.993-1.95,1.708-3.453,1.708
						C381.645,451.319,381.638,451.319,381.632,451.319"/>
					<path id="Fill-136" d="M389.747,183.043c-1.13-0.001-2.054-0.399-2.79-1.02c-0.742-0.623-1.311-1.456-1.834-2.353
						c-1.039-1.797-1.912-3.872-3.324-5.193c-0.942-0.88-2.093-1.452-3.779-1.456l-0.001-0.819c0.004,0.001,0.007,0,0.01,0
						c1.402,0.001,2.54,0.378,3.463,0.994c0.926,0.614,1.635,1.453,2.237,2.359c1.197,1.815,2.005,3.922,3.151,5.245
						c0.765,0.883,1.612,1.418,2.882,1.425v0.819C389.756,183.041,389.752,183.041,389.747,183.043"/>
					<path id="Fill-137" d="M413.233,183.043c-1.131,0-2.054-0.398-2.79-1.02c-0.742-0.623-1.311-1.455-1.835-2.353
						c-1.04-1.798-1.912-3.872-3.324-5.193c-0.942-0.88-2.094-1.451-3.779-1.456v-0.818c0.003-0.001,0.006,0,0.009-0.001
						c1.401-0.001,2.539,0.378,3.463,0.992c0.925,0.615,1.634,1.454,2.236,2.36c1.199,1.815,2.007,3.922,3.15,5.244
						c0.768,0.882,1.614,1.418,2.885,1.425l-0.001,0.818C413.242,183.042,413.238,183.043,413.233,183.043"/>
					<path id="Fill-138" d="M389.782,183.042c-0.008,0.001-0.014,0-0.021,0.001v-0.819c0.956-0.003,1.662-0.31,2.289-0.831
						c0.624-0.521,1.152-1.274,1.654-2.139c1.009-1.726,1.887-3.879,3.471-5.376c1.052-0.996,2.445-1.676,4.31-1.675
						c0.006-0.001,0.012-0.001,0.019,0v0.818c-1.266,0.002-2.227,0.328-3.029,0.858c-0.801,0.53-1.444,1.277-2.009,2.132
						c-1.139,1.708-1.937,3.829-3.212,5.325C392.411,182.328,391.293,183.043,389.782,183.042"/>
					<path id="Fill-139" d="M414.169,183.043c-0.007-0.001-0.012,0-0.019,0l0.001-0.818c0.955-0.003,1.661-0.309,2.287-0.83
						c0.624-0.523,1.152-1.275,1.654-2.139c1.009-1.726,1.887-3.879,3.471-5.378c1.052-0.995,2.445-1.673,4.31-1.675
						c0.007,0.001,0.013,0.001,0.02,0.001v0.818c-1.266,0.002-2.227,0.329-3.029,0.858c-0.801,0.53-1.443,1.278-2.009,2.132
						c-1.14,1.708-1.937,3.829-3.213,5.325C416.8,182.329,415.681,183.042,414.169,183.043"/>
					<path id="Fill-148" d="M209.921,172.203h-0.818c-0.002-1.406,0.375-2.547,0.992-3.472c0.614-0.927,1.453-1.636,2.36-2.238
						c1.814-1.197,3.922-2.007,5.245-3.151c0.883-0.766,1.419-1.613,1.425-2.883h0.819c0.002,1.138-0.396,2.065-1.02,2.804
						c-0.622,0.742-1.455,1.312-2.353,1.834c-1.798,1.04-3.872,1.912-5.192,3.325C210.498,169.365,209.926,170.517,209.921,172.203"
						/>
					<path id="Fill-149" d="M209.921,148.717l-0.818,0c-0.002-1.406,0.376-2.546,0.991-3.472c0.615-0.926,1.454-1.634,2.36-2.237
						c1.815-1.197,3.923-2.006,5.246-3.15c0.883-0.766,1.418-1.615,1.425-2.884l0.818,0c0.003,1.137-0.395,2.064-1.019,2.804
						c-0.624,0.742-1.456,1.312-2.354,1.835c-1.798,1.039-3.872,1.912-5.192,3.325C210.498,145.88,209.926,147.031,209.921,148.717"
						/>
					<path id="Fill-150" d="M219.944,160.46h-0.819c-0.003-0.956-0.31-1.662-0.83-2.288c-0.522-0.624-1.275-1.153-2.139-1.654
						c-1.726-1.01-3.879-1.888-5.378-3.471c-0.999-1.055-1.679-2.456-1.674-4.33l0.818,0c0.001,1.266,0.328,2.227,0.858,3.029
						c0.53,0.801,1.277,1.443,2.132,2.009c1.709,1.14,3.829,1.937,5.325,3.212C219.233,157.813,219.949,158.939,219.944,160.46"/>
					<path id="Fill-151" d="M219.943,136.974l-0.818,0c-0.003-0.955-0.311-1.661-0.831-2.288c-0.521-0.623-1.275-1.152-2.138-1.653
						c-1.726-1.009-3.879-1.888-5.377-3.47c-0.998-1.056-1.679-2.456-1.675-4.33l0.817,0c0.002,1.266,0.328,2.227,0.858,3.029
						c0.531,0.8,1.278,1.442,2.132,2.009c1.709,1.14,3.83,1.938,5.325,3.212C219.233,134.327,219.95,135.454,219.943,136.974"/>
					<path id="Fill-152" d="M406.837,370.926l-0.817,0.001c-0.001-1.406,0.376-2.548,0.992-3.472
						c0.615-0.927,1.453-1.635,2.361-2.238c1.814-1.197,3.922-2.006,5.245-3.15c0.882-0.767,1.418-1.614,1.424-2.882l0.818-0.001
						c0.003,1.137-0.394,2.063-1.02,2.804c-0.622,0.741-1.455,1.31-2.352,1.834c-1.8,1.039-3.873,1.911-5.194,3.324
						C407.415,368.089,406.842,369.24,406.837,370.926"/>
					<path id="Fill-153" d="M406.839,346.538h-0.818c-0.002-1.405,0.374-2.547,0.991-3.473c0.615-0.925,1.454-1.634,2.36-2.237
						c1.815-1.197,3.921-2.005,5.245-3.149c0.882-0.767,1.418-1.615,1.424-2.884l0.818-0.001c0.003,1.137-0.394,2.065-1.019,2.804
						c-0.624,0.742-1.456,1.312-2.353,1.835c-1.799,1.038-3.873,1.911-5.193,3.322C407.414,343.7,406.843,344.852,406.839,346.538"
						/>
					<path id="Fill-154" d="M416.86,359.184l-0.818,0.001c-0.003-0.957-0.309-1.664-0.83-2.29c-0.523-0.625-1.275-1.153-2.139-1.653
						c-1.725-1.01-3.879-1.888-5.376-3.472c-0.999-1.054-1.681-2.454-1.675-4.329l0.817,0.001c0.001,1.265,0.329,2.227,0.859,3.029
						c0.529,0.8,1.275,1.443,2.132,2.009c1.708,1.14,3.829,1.937,5.324,3.211C416.15,356.537,416.866,357.662,416.86,359.184"/>
					<path id="Fill-155" d="M416.86,334.794l-0.818,0.001c-0.002-0.956-0.309-1.661-0.83-2.288
						c-0.522-0.624-1.274-1.153-2.139-1.654c-1.726-1.009-3.879-1.887-5.377-3.47c-1-1.056-1.679-2.456-1.676-4.332l0.819,0.001
						c0.001,1.264,0.327,2.226,0.857,3.028c0.53,0.802,1.278,1.444,2.133,2.01c1.708,1.14,3.829,1.937,5.324,3.212
						C416.15,332.147,416.866,333.273,416.86,334.794"/>
					<path id="Fill-156" d="M162.047,388.992l-0.818,0c-0.002-1.406,0.376-2.546,0.992-3.471c0.614-0.926,1.453-1.636,2.36-2.237
						c1.815-1.198,3.922-2.007,5.245-3.151c0.882-0.767,1.418-1.614,1.425-2.884l0.818,0.001c0.002,1.138-0.395,2.065-1.02,2.805
						c-0.623,0.741-1.455,1.312-2.353,1.834c-1.797,1.039-3.871,1.912-5.192,3.324C162.624,386.155,162.052,387.306,162.047,388.992
						"/>
					<path id="Fill-157" d="M162.047,365.507l-0.817,0c-0.001-1.406,0.376-2.546,0.992-3.471c0.613-0.927,1.452-1.637,2.359-2.238
						c1.814-1.198,3.922-2.006,5.244-3.15c0.883-0.767,1.419-1.614,1.426-2.883h0.818c0.002,1.136-0.395,2.064-1.02,2.803
						c-0.622,0.742-1.455,1.314-2.353,1.836c-1.797,1.039-3.872,1.911-5.192,3.324C162.623,362.669,162.052,363.821,162.047,365.507
						"/>
					<path id="Fill-158" d="M172.069,377.249l-0.818-0.001c-0.003-0.955-0.31-1.662-0.831-2.287
						c-0.521-0.624-1.274-1.152-2.138-1.654c-1.726-1.01-3.879-1.887-5.376-3.471c-1-1.056-1.681-2.454-1.676-4.329l0.817,0
						c0.002,1.266,0.33,2.227,0.858,3.028c0.531,0.801,1.277,1.442,2.132,2.009c1.708,1.139,3.828,1.936,5.324,3.212
						C171.359,374.603,172.075,375.728,172.069,377.249"/>
					<path id="Fill-159" d="M172.068,353.764h-0.818c-0.004-0.957-0.31-1.662-0.832-2.289c-0.521-0.624-1.273-1.152-2.137-1.654
						c-1.726-1.009-3.879-1.887-5.377-3.47c-0.999-1.055-1.68-2.455-1.675-4.33l0.817-0.001c0.002,1.266,0.33,2.228,0.858,3.03
						c0.531,0.8,1.277,1.442,2.133,2.009c1.708,1.14,3.829,1.937,5.325,3.212C171.359,351.117,172.076,352.242,172.068,353.764"/>
					<polygon id="Fill-160" fill="#FFFFFF" points="318.402,291.437 347.306,291.437 347.306,290.534 318.402,290.534 					"/>
					<polygon id="Fill-162" fill="#FFFFFF" points="321.111,71.034 350.016,71.034 350.016,70.131 321.112,70.131 					"/>
					<polygon id="Fill-164" fill="#FFFFFF" points="147.68,441.384 176.585,441.384 176.585,440.48 147.68,440.48 					"/>
					<polyline id="Fill-165" fill="#FFFFFF" points="222.338,385.379 221.75,384.791 242.841,363.7 243.428,364.288 
						222.338,385.379 					"/>
					<path id="Fill-168" d="M278.699,350.007l-1.096-1.745c-0.521,0.327-1.085,0.478-1.65,0.478
						c-0.518,0.001-1.031-0.129-1.485-0.374c-0.454-0.247-0.848-0.602-1.146-1.076l-0.002-0.003
						c-0.327-0.521-0.476-1.083-0.477-1.65c-0.001-0.515,0.128-1.029,0.373-1.483c0.248-0.454,0.604-0.848,1.079-1.146
						c0.517-0.325,1.08-0.475,1.646-0.476c0.517,0,1.032,0.13,1.486,0.374c0.455,0.246,0.849,0.603,1.146,1.077l0.002,0.002
						c0.325,0.518,0.476,1.081,0.477,1.647c0,0.517-0.129,1.031-0.376,1.486c-0.247,0.455-0.603,0.848-1.074,1.148l0.002-0.002
						L278.699,350.007l1.099,1.745c1.085-0.684,1.934-1.621,2.505-2.679c0.571-1.059,0.869-2.241,0.869-3.443
						c0.002-1.313-0.361-2.654-1.11-3.844l0.001,0.002c-0.683-1.087-1.619-1.939-2.678-2.509c-1.06-0.571-2.244-0.869-3.444-0.87
						c-1.312-0.001-2.652,0.361-3.84,1.109c-1.087,0.683-1.939,1.618-2.51,2.676c-0.571,1.06-0.869,2.243-0.87,3.442
						c-0.001,1.315,0.364,2.656,1.114,3.847l-0.002-0.005c0.682,1.089,1.619,1.941,2.678,2.512c1.059,0.572,2.243,0.871,3.443,0.871
						c1.315,0,2.654-0.361,3.842-1.111l0.003,0.001L278.699,350.007"/>
					<path id="Fill-169" d="M238.051,209.092l-1.097-1.745c-0.52,0.326-1.083,0.477-1.65,0.478c-0.516,0-1.03-0.13-1.484-0.375
						c-0.455-0.247-0.848-0.602-1.147-1.077l-0.001-0.001c-0.326-0.521-0.476-1.084-0.478-1.65c0-0.515,0.13-1.029,0.375-1.483
						c0.247-0.454,0.602-0.848,1.077-1.147c0.518-0.324,1.081-0.475,1.647-0.476c0.518,0,1.033,0.129,1.487,0.375
						c0.455,0.247,0.848,0.602,1.147,1.076l0.001,0.001c0.325,0.519,0.476,1.081,0.476,1.648c0.001,0.516-0.13,1.03-0.375,1.485
						c-0.246,0.455-0.601,0.849-1.075,1.147l0.001-0.001L238.051,209.092l1.098,1.744c1.086-0.682,1.936-1.618,2.507-2.678
						c0.571-1.06,0.869-2.242,0.869-3.442c0.001-1.314-0.361-2.654-1.11-3.844l0,0.002c-0.682-1.087-1.619-1.939-2.679-2.511
						c-1.06-0.571-2.243-0.869-3.443-0.869c-1.314-0.001-2.654,0.362-3.842,1.109c-1.086,0.682-1.937,1.618-2.508,2.675
						c-0.572,1.06-0.871,2.242-0.871,3.442c0,1.316,0.363,2.657,1.112,3.846l-0.001-0.001c0.681,1.087,1.618,1.939,2.676,2.51
						c1.061,0.572,2.244,0.871,3.445,0.871c1.313,0.001,2.653-0.362,3.843-1.11l0.001-0.002L238.051,209.092"/>
					<path id="Fill-172" d="M387.997,88.956l-1.096-1.745c-0.521,0.327-1.084,0.477-1.65,0.478c-0.517,0-1.031-0.13-1.484-0.375
						c-0.455-0.247-0.848-0.602-1.147-1.076l-0.001-0.002c-0.327-0.52-0.477-1.084-0.478-1.649c0-0.515,0.129-1.03,0.375-1.484
						c0.245-0.454,0.601-0.848,1.076-1.146c0.519-0.325,1.08-0.475,1.648-0.476c0.517,0,1.031,0.129,1.485,0.375
						c0.455,0.247,0.849,0.603,1.148,1.077l0,0.002c0.327,0.517,0.477,1.08,0.478,1.646c0.001,0.516-0.13,1.03-0.375,1.485
						c-0.246,0.455-0.603,0.85-1.076,1.148l0.002-0.001L387.997,88.956l1.099,1.744c1.086-0.682,1.936-1.619,2.506-2.677
						c0.572-1.059,0.87-2.243,0.87-3.443c0.002-1.314-0.362-2.654-1.111-3.843l0.001,0.001c-0.683-1.086-1.619-1.939-2.678-2.509
						c-1.061-0.572-2.244-0.87-3.444-0.87c-1.314-0.002-2.655,0.361-3.842,1.109c-1.086,0.682-1.938,1.617-2.508,2.677
						c-0.572,1.059-0.871,2.241-0.871,3.441c0,1.316,0.362,2.656,1.111,3.846l0.001,0c0.682,1.086,1.617,1.938,2.676,2.51
						c1.06,0.571,2.244,0.871,3.444,0.87c1.313,0.001,2.653-0.36,3.843-1.11l0.002-0.001L387.997,88.956"/>
				</g>
			</g>
		</g>
	</g>
</g>
</svg>
